<svg width="263" height="46" viewBox="0 0 263 46" fill="none" xmlns="http://www.w3.org/2000/svg">
<path d="M18.962 38.288H9.006L7.41 43H0.608L10.26 16.324H17.784L27.436 43H20.558L18.962 38.288ZM17.29 33.272L13.984 23.506L10.716 33.272H17.29ZM36.8716 14.88V43H30.3736V14.88H36.8716ZM52.2206 27.192H48.7246V43H42.2266V27.192H39.8706V21.796H42.2266V21.188C42.2266 18.5787 42.9739 16.6027 44.4686 15.26C45.9633 13.892 48.1546 13.208 51.0426 13.208C51.5239 13.208 51.8786 13.2207 52.1066 13.246V18.756C50.8653 18.68 49.9913 18.8573 49.4846 19.288C48.9779 19.7187 48.7246 20.4913 48.7246 21.606V21.796H52.2206V27.192ZM61.772 25.33C62.532 24.1647 63.482 23.2527 64.622 22.594C65.762 21.91 67.0286 21.568 68.422 21.568V28.446H66.636C65.0146 28.446 63.7986 28.8007 62.988 29.51C62.1773 30.194 61.772 31.41 61.772 33.158V43H55.274V21.796H61.772V25.33ZM91.5159 32.056C91.5159 32.664 91.4779 33.2973 91.4019 33.956H76.6959C76.7972 35.2733 77.2152 36.2867 77.9499 36.996C78.7099 37.68 79.6345 38.022 80.7239 38.022C82.3452 38.022 83.4725 37.338 84.1059 35.97H91.0219C90.6672 37.3633 90.0212 38.6173 89.0839 39.732C88.1719 40.8467 87.0192 41.7207 85.6259 42.354C84.2325 42.9873 82.6745 43.304 80.9519 43.304C78.8745 43.304 77.0252 42.8607 75.4039 41.974C73.7825 41.0873 72.5159 39.8207 71.6039 38.174C70.6919 36.5273 70.2359 34.602 70.2359 32.398C70.2359 30.194 70.6792 28.2687 71.5659 26.622C72.4779 24.9753 73.7445 23.7087 75.3659 22.822C76.9872 21.9353 78.8492 21.492 80.9519 21.492C83.0039 21.492 84.8279 21.9227 86.4239 22.784C88.0199 23.6453 89.2612 24.874 90.1479 26.47C91.0599 28.066 91.5159 29.928 91.5159 32.056ZM84.8659 30.346C84.8659 29.2313 84.4859 28.3447 83.7259 27.686C82.9659 27.0273 82.0159 26.698 80.8759 26.698C79.7865 26.698 78.8619 27.0147 78.1019 27.648C77.3672 28.2813 76.9112 29.1807 76.7339 30.346H84.8659ZM93.6519 32.36C93.6519 30.1813 94.0572 28.2687 94.8679 26.622C95.7039 24.9753 96.8312 23.7087 98.2499 22.822C99.6686 21.9353 101.252 21.492 103 21.492C104.393 21.492 105.66 21.7833 106.8 22.366C107.965 22.9487 108.877 23.734 109.536 24.722V14.88H116.034V43H109.536V39.96C108.928 40.9733 108.054 41.784 106.914 42.392C105.799 43 104.495 43.304 103 43.304C101.252 43.304 99.6686 42.8607 98.2499 41.974C96.8312 41.062 95.7039 39.7827 94.8679 38.136C94.0572 36.464 93.6519 34.5387 93.6519 32.36ZM109.536 32.398C109.536 30.7767 109.08 29.4973 108.168 28.56C107.281 27.6227 106.192 27.154 104.9 27.154C103.608 27.154 102.506 27.6227 101.594 28.56C100.707 29.472 100.264 30.7387 100.264 32.36C100.264 33.9813 100.707 35.2733 101.594 36.236C102.506 37.1733 103.608 37.642 104.9 37.642C106.192 37.642 107.281 37.1733 108.168 36.236C109.08 35.2987 109.536 34.0193 109.536 32.398ZM130.387 43.304C128.31 43.304 126.435 42.8607 124.763 41.974C123.116 41.0873 121.812 39.8207 120.849 38.174C119.912 36.5273 119.443 34.602 119.443 32.398C119.443 30.2193 119.924 28.3067 120.887 26.66C121.85 24.988 123.167 23.7087 124.839 22.822C126.511 21.9353 128.386 21.492 130.463 21.492C132.54 21.492 134.415 21.9353 136.087 22.822C137.759 23.7087 139.076 24.988 140.039 26.66C141.002 28.3067 141.483 30.2193 141.483 32.398C141.483 34.5767 140.989 36.502 140.001 38.174C139.038 39.8207 137.708 41.0873 136.011 41.974C134.339 42.8607 132.464 43.304 130.387 43.304ZM130.387 37.68C131.628 37.68 132.68 37.224 133.541 36.312C134.428 35.4 134.871 34.0953 134.871 32.398C134.871 30.7007 134.44 29.396 133.579 28.484C132.743 27.572 131.704 27.116 130.463 27.116C129.196 27.116 128.145 27.572 127.309 28.484C126.473 29.3707 126.055 30.6753 126.055 32.398C126.055 34.0953 126.46 35.4 127.271 36.312C128.107 37.224 129.146 37.68 130.387 37.68ZM170.945 36.16H158.291L155.745 43H153.883L163.687 16.932H165.587L175.353 43H173.491L170.945 36.16ZM170.413 34.716L164.637 19.174L158.823 34.716H170.413ZM181.355 14.88V43H179.645V14.88H181.355ZM189.334 14.88V43H187.624V14.88H189.334ZM194.538 32.664C194.538 30.536 194.956 28.674 195.792 27.078C196.654 25.482 197.832 24.2533 199.326 23.392C200.846 22.5307 202.569 22.1 204.494 22.1C206.673 22.1 208.522 22.632 210.042 23.696C211.562 24.76 212.626 26.1153 213.234 27.762V22.366H214.944V43H213.234V37.566C212.626 39.238 211.55 40.6187 210.004 41.708C208.484 42.772 206.648 43.304 204.494 43.304C202.569 43.304 200.846 42.8733 199.326 42.012C197.832 41.1253 196.654 39.884 195.792 38.288C194.956 36.6667 194.538 34.792 194.538 32.664ZM213.234 32.664C213.234 30.8653 212.854 29.282 212.094 27.914C211.36 26.5207 210.346 25.4567 209.054 24.722C207.762 23.962 206.318 23.582 204.722 23.582C203.05 23.582 201.581 23.9493 200.314 24.684C199.048 25.3933 198.06 26.432 197.35 27.8C196.641 29.168 196.286 30.7893 196.286 32.664C196.286 34.5387 196.641 36.16 197.35 37.528C198.06 38.896 199.048 39.9473 200.314 40.682C201.606 41.4167 203.076 41.784 204.722 41.784C206.318 41.784 207.762 41.4167 209.054 40.682C210.372 39.922 211.398 38.858 212.132 37.49C212.867 36.0967 213.234 34.488 213.234 32.664ZM230.481 21.948C232.938 21.948 234.939 22.708 236.485 24.228C238.03 25.7227 238.803 27.952 238.803 30.916V43H237.131V31.03C237.131 28.5727 236.51 26.698 235.269 25.406C234.027 24.0887 232.343 23.43 230.215 23.43C227.985 23.43 226.199 24.1393 224.857 25.558C223.539 26.9767 222.881 29.0793 222.881 31.866V43H221.171V22.366H222.881V26.736C223.463 25.1907 224.426 24.0127 225.769 23.202C227.137 22.366 228.707 21.948 230.481 21.948Z" fill="white"/>
<path d="M257.564 43.273C256.576 43.273 255.757 42.974 255.107 42.376C254.483 41.752 254.171 40.985 254.171 40.075C254.171 39.165 254.483 38.411 255.107 37.813C255.757 37.189 256.576 36.877 257.564 36.877C258.526 36.877 259.319 37.189 259.943 37.813C260.567 38.411 260.879 39.165 260.879 40.075C260.879 40.985 260.567 41.752 259.943 42.376C259.319 42.974 258.526 43.273 257.564 43.273Z" fill="#F13024"/>
</svg>
